<?xml version="1.0" encoding="utf-8"?>
<!-- Generator: Adobe Illustrator 23.1.1, SVG Export Plug-In . SVG Version: 6.00 Build 0)  -->
<svg version="1.1" id="Layer_1" xmlns:amcharts="http://amcharts.com/ammap"
	 xmlns="http://www.w3.org/2000/svg" xmlns:xlink="http://www.w3.org/1999/xlink" x="0px" y="0px" viewBox="0 0 841.9 595.3"
	 style="enable-background:new 0 0 841.9 595.3;" xml:space="preserve">
<style type="text/css">
	.st0{fill:#CCCCCC;stroke:#FFFFFF;stroke-width:1.6749;}
</style>
<defs>
	
	
		<amcharts:ammap  bottomLatitude="34.800800" leftLongitude="19.374078" projection="mercator" rightLongitude="29.608925" topLatitude="41.749800">
		</amcharts:ammap>
</defs>
<path id="GR-K" class="st0" d="M481.2,151l-4.5,1l-4.1-3.1l-16.1,1.3l-1.3-2.1l-10.2-1.7l-23-11.3l-6.3-4.7l-12.9-19.9l-18.2-4.6
	l-4.2-2.9l-2.5-7.3l-9.2-9.1l-0.7-3.5l5.7-4.1h20.6l21.7,4.1l9.5,4.2l0.1,5l9.8,11.6l-1.1,3.9l3.4,4.7l0.1,6.4l31.9,16.1l5.2,8.7
	l7.3,5.9L481.2,151z M615.6,430.6L602,453.4l-13.4,3.7l-0.6,3.3l-8,7.7l-13.3,5.7l1.1,4.5l13.9-2.8l0.5,1.7l-6.8,6.4l5.3,1.2
	l-0.6,4.2l-3.7-3.1l-3.7,2.1l-5.5,7.9l-2.6,10.1l-2.2-6.2l1.1-6.2l-3-3.1l-6.8,2.3l-2.6-3.2l-3.7,7l-5.1-0.1l-1.6-3.1l2.3-0.9
	l-1.8-3.1l1.9-1l-1-2.6l8.3-14.6l-3.1-10.8l3-4.6l0.5-6.6l-2.9-11.5l-7.4-4.4l0.9-6.3l9.5-15.1l25.3-3l9-6.3l7.3-21.4l-1.9-4.9
	l-1.8-0.3l1.1-2.8L587,372l2.2-1.3l-0.7-4l2.2-0.4l-1.6-3.9l7.6-0.5l4.1,4.1l11.2-0.6l6.9,13.1l0.9,4.7l-3.1,7.9l4.2,8.6l0.2,5.2
	l-2.2,5.2V423L615.6,430.6z M259.3,56.7l-4.6,10.6l2.4,5.7l-13.5,8.1l0.6,6.1l0.2,3.2l0.2,2.8l4.8,2.2l-4.4,4.5v2.9l-6.2,1.8
	l-5.6-2.7l-10.2,1.9l-3.2-2.2l-0.5-4.9l-4.9-0.5l0.5,5.4l-2.7,0.8l-1.3,2.1l-2.5,1.3l-15.6-3.9l-5.5,0.6l-13.2,4.6l-3.5,0.5
	l-8.6,0.6l-3.5,6.1l-4-1.6l-3.1,2.3l-17.7-14.3l-10.2,1.8l-4.3,4l-10-3.7L103,85.7l-8-3.4l-7.3,1.2l-5.8-2.8l2.2-4.5l3.5-1.6
	l0.3-7.7l6.7-6.4h3.5l-1.8-7l5.4-0.8l-1.3-1.8l2.3-3.2l2.1-2.4l-1.2-4.3l11.2-2l-1.1-6.3l12,2l1,3.6l10.6,7.5l0.7,2v1.6l-0.3,3.5
	l-1.6,3.2l1.2,3.3l5.9,1.7l2.7-2.2l10.5-1.6l5.7-1.1l5.5-2.2l4.1-1.6l3.8-0.3l3.3,0.3l15-2.7l1.4-3.5l4.9-1.6l4.1-10.1l-0.2-5.6
	l5.6-8.9L229,8l14.3,5.9l4.6,9.3l1.3,13.9L259.3,56.7z"/>
<path id="GR-L" class="st0" d="M525.7,219.2l-2.8-2.6l0.9-1.3l1.9,0.8l1.7-4.4l3-1.7l-3.1-2.9l-5.6,3l-6.6-1.1l0.5,3.1l-2.1-0.7
	l-0.2,2.8l3.7,1l-2,4.4l-0.7-2.6l-4.3,2.3l-3.8-2.9l4.7-4.5l-2.2-2.5l4.2-5l2-5.9l-1.4-1.8l4.1-4.9l-6.7-7.5l4.1-1.6l-3.5-2.7
	l6.3-6.4l2.7-9.6l2.9,0.3l4.7-6.8l2.8,0.9l7.6-6.7l6.4,1.2l1.6,2.7l4.3-0.6l3.3,5.4l3.9-2.6l5.8,10l0.1,6.3l-3,3.6l0.2,7.7
	l-14.4,9.9l0.8,2.1l1.7-1.2l2.2,2.1l1.9-2.5l0.7,1.5l-7.9,10.2l-11.9,5.2l-2.1,3.5l-4.2,0.7l0.1,1.5l-1.7,2.2L525.7,219.2z
	 M533.4,583.8l-4.8,0.6l0.2-1.9l-5.5-3l-0.6-3.4l0.2-2.3l3.2-7l-3.4-1.6l0.2-10l2.5,0.6l1.1,5.5l2-0.3l-0.1-10.1l6.6-4.1l0.3,1.6
	l2.4-0.6l-2.7,4.8l10.1-0.3l-0.4,5.6l2.5-0.5l1.3-3.7l3.6,0.1l3.6,0.5l2.9-2.6l0.1,3.9l-5,3.2l3.2,6.7l-5,1.8l2.4,3.4l-4.1,2.6
	l0.6,3.4l-3.7,1.4l-2.3,4.4l-4.6-1.8l0.2,3.7l-2.8,0.2l-2.4,1.1L533.4,583.8z M576.3,330.4l0.2-6.3L573,331l-8.9-6.8l-5.5-14.1
	l0.2-5.8l2.7,0.2l-0.9-5.2l2.8-14.2l11.1-29.4l10-13.7l4.7-14.2l8.8-6.9l1.2,20.5l-2.5,17l4.6,3.1l-1.1,10l-2.4,1.7l2.8,5.9
	l-3.9,10.1l0.9,3.1l-1,3.3l-2.5,4.4l-1.7,13.5l-3,2.5l-3.1-3.2l-3.6,5.8l4.2,0.1l-3.6,9.7l-4.3-0.3l-3,4.7L576.3,330.4z"/>
</svg>
