<?xml version="1.0" encoding="utf-8"?>
<!-- Generator: Adobe Illustrator 23.1.1, SVG Export Plug-In . SVG Version: 6.00 Build 0)  -->
<svg version="1.1" id="Layer_1" xmlns:amcharts="http://amcharts.com/ammap"
	 xmlns="http://www.w3.org/2000/svg" xmlns:xlink="http://www.w3.org/1999/xlink" x="0px" y="0px" viewBox="0 0 841.9 595.3"
	 style="enable-background:new 0 0 841.9 595.3;" xml:space="preserve">
<style type="text/css">
	.st0{fill:#CCCCCC;stroke:#FFFFFF;stroke-width:2.2274;}
</style>
<defs>
	
	
		<amcharts:ammap  bottomLatitude="42.403924" leftLongitude="13.491998" projection="mercator" rightLongitude="19.405604" topLatitude="46.542613">
		</amcharts:ammap>
</defs>
<path id="HR-17" class="st0" d="M165.2,549.3l-0.6,3.2l6.9,0.8l-6.2,8.5l4.6,2L181,554l8.9,0.8l2,4.6l6.5-5l-0.4,13.1l-10.9,7.1
	l-0.6,6.5l-8.3,5.4l-7.3,1.6l-11.7,2.2l-27.4,5l-20.6-0.4l10.5-9.7l0.4-9.3l-4.4-6l-8.3,4.2l-6-9.1l21.2-11.7L165.2,549.3z
	 M403.7,538.5l9.1,1l9.3,1.2l4.6,5l-12.7,5l-24.2-4.4l4.8-6.5L403.7,538.5z M243.7,491.7l13.7,7.5l8.9-2.8l0.8,7.1l-8.9,2l-7.9-0.4
	l-9.7-5.4l-6.7-2.2l3.8-6.7L243.7,491.7z M343.2,456.4l4.8-0.2l-2.8,8.1l1.6,3.8l5.6-0.6l-0.8,5l12.5-7.7l3.2,4l12.3-0.4l2.2-0.4
	l2.6-3l8.3,3.6l-1.4,9.1l15.9,12.1l-12.5-2.2l10.7,6.7l4.4,5.4l9.7,3.4l10.7-5.2l5-0.2l8.7,4.6l23.8-2.4l6.2,3.4l16.9-3.6l9.7,6.5
	l28.4-0.2l68.5,11.3l18.7-4l23.8,9.5l-38.7,6.9l-7.9-2.6l-20,3.4l-6.2-3.2l-15.7,3.2l-13.1-1l-20,1.4l-76.4-9.7l-51.6,3.8
	l-45.8-12.7l-11.7,1l-29.4-14.1l-6.5,3.6l-12.1-4.2l1.4-4.8l-7.9-0.2l-2.4-4.2l-26-9.7l6.5-2.8l18.3,3.4l8.9-5.4l7.3-3.2l5.8,1.4
	l3.4-3.2l25.4,4.4l19.2,15.3l13.9-3.2l-9.5-3.2l-0.8-7.9l-6.7-1.4l-1.8-9.1l-8.3,4.6l-8.9-8.7l4.4-3l2.2,3.6l7.7,0.2l-2-5.6
	L343.2,456.4z M287.4,357.6l31.6,4.2l17.3-3.6l28,5.2l33.3,5.8l26.2,6.2l20.6,2.2l1.2,5.2l7.5-3.4l9.5,5l-9.7,2.8l0.6,3.6l10.3-2.6
	l4.8,5l0.4-5.2l3.8-0.8l23.4,14.5l4.8,5.4l-6,2.2l3.8,5.4l-6.2,2l-0.2,8.3l-8.1-2.4l-4,9.3l-30,5.6l-17.3-2l-55.8,6l-9.5-4.4
	l-39.9-4.6l-9.3-3.6l-4.4-1.4l-5.6-4.2l-1.6-4.4l-5.6-0.8l-4.4-2.8l-5-0.4l2.4-4.6l-3.4-3l-4,0.8l0.8,3.8l-4.6-1.6l-2.8-2l-8.7-4
	l-0.8-10.7l7.9,7.1l10.9-1.8l-6.2-3.2l-0.6-8.9l13.1-4.8l-6.5-3.4l1.8-6.9l-9.9-9.3l-0.8-3.6L287.4,357.6z M193.1,343.1l24.2,6.5
	l2.4,6.5l4.4-3.2l3.6,3l4.8-1l11.5,15.5l4.2-1.4l1.4,8.9l13.1,9.9l2.8,8.5l-8.5,1.6l-1.4-4.8l-5,0.2l-4.6-0.6l-3.4-4.6l-14.9-4
	l-5.8-3.2l1.4-4.4l-9.7-1.8l-5-1.8l-21.8-11.9l-11.7-0.4l-0.8-4.6l1.6-6.9l-3-4L193.1,343.1z M120.7,317.5l3.8,5.2l-5,6.2l-3.6-5.4
	l-12.3-1.4l1-2.8L120.7,317.5z M144.9,315.7l11.9,1l4.2,8.3l-3.4,6.2l-7.1-3.2l-4.2,5.2l-16.3,0.4l4.6-8.3l3.2,0.6l-0.4-5.8l3.8-2
	L144.9,315.7z M210.4,280.8l10.5,0.4l23.6,12.7l18.1,4.2l-36.3,3.2l-20.2-6.5l-2.2,4.6l-10.3,3.4l-18.9-9.5l6.5-3.6l17.5,4l1.4-9.1
	l-8.5-3.2L210.4,280.8z M86.8,288.9l11.3-4.8l2.8-10.9l14.9-0.2l5.8-4.8l-3-16.3l-12.7-2l-6-14.7l11.3-6.9l2.6-7.7l13.3-2.8l14.3-22
	l20.2-0.6l5.4-14.5l21.2,1.6l8.7-11.7l35.9,2.6l13.7-14.9l-0.2-4.4l-9.1-7.3l9.1-9.5l-5.6-12.5l20-10.9l4.2-7.9l17.9-12.9
	l-46.2-42.1l7.5-23.6l15.5,5l13.7-1.4l0.8-4l-6.5-4l1.2-5l9.5-4.4l8.5,2L309.4,0l20,1l0,0l22.4,14.7l15.7,21.4l38.1,26.4l3.8,6.5
	l0.2,19.6l12.3,19.4l7.7,7.7l20.6,4.4l12.9,21.8l16.3,10.9l8.7,13.7l11.9,6.9l10.3,18.7l17.3,15.1l37.1,47.2l5.8-4.2l8.5,3.2
	l9.3,10.3l14.5,7.9l11.3,14.3l38.1-1.4l14.9,9.9l10.1,13.5l2.2,11.5l-1.8,13.1l-11.9,25l35.9,64.5l3.8,19.6l24.2,4.4l12.3,9.3
	l10.3,18.1l-2.4,13.3l6.9,1.6l0,0l-16.1,14.7l-23.8-5.6l-9.5,4.8l0.8,8.9l16.1,5l-0.2,12.7l-12.1,13.1l0,0l-6.5-11.5l-21.8-9.7
	l-2.6-6.7l-11.5-8.5l-39.9-14.1l-10.1-11.7l-6.7-0.6l-12.1-9.1l-2.8-11.5l-12.9-4L572,432.6l-14.7-10.1l-4.6-4.4L522.9,377l-23-17.9
	l-4.4-7.7l-45.6-1.6l-31.2-6.2l-15.9-18.7l-22.4,3.2l-10.5-8.9l-19.2-6.9l-19.4-16.3l-6-4.6l-22.4-3.4l-13.1,2.4l-11.7-0.4
	l-18.1-5.2l7.3-4.4l8.1-3.8l8.3-4.2l3.6-0.8l13.3,1.8l0.2-3l-3-3l-54.8-9.5l-17.9,7.5l-9.3,8.9l-33.3,5.2l-5.6,4.2l-12.5,2l-1.4-3.4
	l-9.9,0.6l-12.7-5l-7.3,4.8l26.8,6.7l1.4,5.6l-8.9,6.2l-11.5,0.8l-2.2,1.4l-6.7,5l-10.1-1.2l-11.9-7.5l-3.6,6l-6-3.6l-4.2,1.6
	l2.4-7.5l-8.3-1.4l-4.8,4.4L86.8,288.9z"/>
</svg>
