<?xml version="1.0" encoding="utf-8"?>
<!-- Generator: Adobe Illustrator 23.1.1, SVG Export Plug-In . SVG Version: 6.00 Build 0)  -->
<svg version="1.1" id="Layer_1" xmlns:amcharts="http://amcharts.com/ammap"
	 xmlns="http://www.w3.org/2000/svg" xmlns:xlink="http://www.w3.org/1999/xlink" x="0px" y="0px" viewBox="0 0 841.9 595.3"
	 style="enable-background:new 0 0 841.9 595.3;" xml:space="preserve">
<style type="text/css">
	.st0{fill:#CCCCCC;stroke:#FFFFFF;stroke-width:4.3455;}
</style>
<path id="US-HI" class="st0" d="M331.2,113l-12.6-1.2l-2.7-6.3l-8.1-8.3l0.1-7l-6.1-11.5l0.5-8.2l13.7-4.8l20.1,3.2l20.2,17.6l-1,10
	l-3.6,5l-7.1,3l-7.5,6.5L331.2,113z M256.8,33.8l-5.5,2.7l-2.5-3.3l2.4-4.5l6.5-3.5l9-0.1l11.6-2l3.8,5l-6.3,2.3l-4.4,4.6l-9-2.9
	L256.8,33.8z M396.3,198.7l2.7,3.1l4.6,2.6l-5,9l1.2,8.3l-0.3,4l-7.4-1.4l-11-7l-2.9-6l-0.9-8.9l-6.3-2.9l2.3-4.7v-1.9l-4.4-1.8
	l-0.8,7.8l-9.4-7l-2.3-3l2.2-7.8l-0.3-18.7l3.6-4.3l1-7.7l15,9.8l16.9-1.3l6.1,3.4l-1.6,22.9l-3.6,3.9l-1,5.8L396.3,198.7z
	 M437.8,246.9l17.6,18.5l5.6,2.5l1.5,4.9l15.3,14.3l2.2,3l-7.4,2.5l-14.3-3.6l-11.8-16.1l-24.1-21.6l4.2-3.1l4.6-0.9l4.3-4.6
	L437.8,246.9z M483.6,329.2l1,3.7l12.2,5.2l8,4.7l7,16.2l0.7,7.8l4.3,11.1v5.6l-5.6,2.5l-14.3,0.2l-13.4-7.8l-9.5-2.6l-8.9-8
	l-1.8-3.5l6-9.6l4.5-11.8l-6.9-3.7l-4.3-8.5l-0.7-13.5l3-5.4l9.8-4.5l7.5,4.3l1.7,8.1L483.6,329.2z M436.7,318.3l-7.8-1.6l-5-6.2
	l4-7.9l1-13.3l11.6,6.3l3.7,7l0.9,5.1v7.6L436.7,318.3z M416.4,571.1l-8.1,1.6l-5-4.5l-11.4-25.6l2-7.5l21.6-25l9.2-26.8l4.6-22.3
	l12.3-3.8l12.6-0.4l17.9-5.6l5-20.9l9-8l5.3,1.6l11.3,26.9l27.6,48.4l1.7,20.4l-7.9,14.5l6.2,7.3L527,553l4.9,16l0.3,7.2l-9.9,3.8
	l-30.2-1.1L462.6,566l-33.7-1.4L416.4,571.1z"/>
</svg>
