<svg id="Capa_1" enable-background="new 0 0 512 512" height="512" viewBox="0 0 512 512" width="512" xmlns="http://www.w3.org/2000/svg"><path id="XMLID_551_" d="m413.49 99.512c2.64 0 5.21-1.06 7.07-2.92 1.87-1.87 2.93-4.45 2.93-7.08s-1.06-5.21-2.93-7.07c-1.86-1.86-4.43-2.93-7.07-2.93-2.63 0-5.21 1.07-7.07 2.93s-2.93 4.44-2.93 7.07c0 2.64 1.07 5.21 2.93 7.08 1.86 1.86 4.44 2.92 7.07 2.92z"/><path id="XMLID_554_" d="m511.306 313.549c-10.067-27.379-36.436-45.774-65.616-45.774-2.247 0-4.511.112-6.777.335-6.229-7.281-13.875-13.187-22.408-17.375 16.726-25.993 25.702-56.259 25.702-87.886 0-11.127-1.13-22.249-3.359-33.055-1.116-5.409-6.4-8.891-11.814-7.774-5.409 1.116-8.89 6.405-7.774 11.814 1.956 9.48 2.947 19.242 2.947 29.015 0 31.542-10.176 61.542-28.954 86.242-.231.273-.448.558-.65.857-3.66 4.739-7.635 9.282-11.922 13.596l-46.091 46.378c-.005.005-.01.01-.016.016l-42.85 43.117 24.613-50.385c23.8-48.721 36.38-103.135 36.38-157.359 0-49.095-22.898-94.947-60.434-124.726 32.755 2.927 63.276 16.942 87.033 40.215 3.946 3.865 10.277 3.8 14.142-.146 3.865-3.945 3.8-10.276-.146-14.142-30.617-29.994-71.086-46.512-113.953-46.512h-46.303c-88.315 0-160.434 70.667-162.786 158.425-1.811-.151-3.629-.235-5.448-.235-15.695 0-30.873 5.645-42.737 15.894-11.736 10.138-19.508 24.123-21.885 39.376-.45 2.886.385 5.825 2.285 8.043 1.899 2.22 4.675 3.497 7.596 3.497h72.473c8.097 19.561 20.094 37.65 34.995 52.643l85.822 86.357h-6.291c-5.523 0-10 4.477-10 10s4.477 10 10 10h13.127v28h-2c-5.523 0-10 4.477-10 10v61.603c0 15.658 12.739 28.397 28.397 28.397h59.206c15.658 0 28.397-12.739 28.397-28.397v-61.603c0-5.523-4.477-10-10-10h-2v-28h12.873c5.523 0 10-4.477 10-10s-4.477-10-10-10h-6.037l36.771-37h156.106c3.269 0 6.331-1.597 8.201-4.278 1.87-2.68 2.313-6.105 1.185-9.173zm-331.595-165.795c-.006-.816-.013-1.635-.013-2.444 0-48.6 25.656-93.574 66.51-118.617v149.2c-.655-.615-1.321-1.221-2.004-1.81-11.864-10.25-27.042-15.894-42.737-15.894-3.205 0-6.407.235-9.575.703-3.674-4.154-7.765-7.881-12.181-11.138zm66.497 77.246v134.725l-32.16-65.834c-10.743-21.992-19.067-45.116-24.827-68.891zm86.51-79.689c0 51.199-11.878 102.577-34.351 148.581l-32.16 65.834v-333.033c40.855 25.043 66.511 70.017 66.511 118.618zm-112.597-124.719c-35.437 28.119-57.801 70.565-60.187 116.54-8.505-3.111-17.568-4.77-26.791-4.77-14.896 0-29.378 4.325-41.758 12.116 8.5-65.907 62.092-117.876 128.736-123.886zm-155.299 157.597c3.74 0 7.475.461 11.099 1.371 3.915.981 8.036-.484 10.449-3.718.38-.51.784-.993 1.178-1.488.368-.389.697-.814.999-1.258 11.116-13.221 27.18-20.734 44.598-20.734 18.59 0 35.639 8.558 46.775 23.48 2.413 3.234 6.536 4.699 10.449 3.718 3.624-.91 7.358-1.371 11.099-1.371 18.403 0 34.361 10.759 41.478 26.811h-66.146c-.031 0-.062 0-.092 0h-153.364c7.116-16.051 23.075-26.811 41.478-26.811zm39.612 46.811h64.244c6.119 26.837 15.314 52.929 27.399 77.669l24.613 50.385-88.956-89.51c-11.291-11.36-20.431-24.285-27.3-38.544zm189.774 258.604c0 4.63-3.767 8.397-8.397 8.397h-59.206c-4.63 0-8.397-3.767-8.397-8.397v-51.604h76zm-12-71.604h-52v-28h11.844 28.261c.015 0 .029.002.044.002.012 0 .023-.002.035-.002h11.816zm83.484-105 29.176-29.357c3.339-3.36 6.505-6.848 9.512-10.439 8.799 3.543 16.495 9.577 22.077 17.414 2.259 3.173 6.154 4.747 9.986 4.028 3.085-.578 6.197-.871 9.249-.871 15.582 0 30.039 7.345 39.345 19.225z"/></svg>